<svg xmlns="http://www.w3.org/2000/svg" xmlns:xlink="http://www.w3.org/1999/xlink" viewBox="0 0 990 131.84"><defs><style>.cls-1{fill:none;}.cls-2{clip-path:url(#clip-path);}.cls-3{fill:#004650;}</style><clipPath id="clip-path"><path class="cls-1" d="M888.18,41.55c0-16.37,8.58-24.88,24.4-24.88h29.11c17.66,0,31.46,13.36,31.46,30.55,0,9.35-3.87,17-10.26,21.87L971.64,83A21.55,21.55,0,0,1,975,94.81a21.85,21.85,0,0,1-22,22A22.31,22.31,0,0,1,933.78,106l-2.36-4.17a21.43,21.43,0,0,1-20.86,15c-12.28,0-22.38-10.35-22.38-22.87V41.55Zm-6.68,56.1a19,19,0,0,1-19.07,19.19H827.59c-15.93,0-24.56-8.42-24.56-24.92V41.59c0-16.33,8.63-24.92,24.56-24.92h34.84A19.22,19.22,0,0,1,881.5,36c0,9.77-6,16.84-14.59,18.52,4,2.52,6.13,6.73,6.13,12.29s-2.32,9.76-6.13,12.29c8.46,1.68,14.59,8.92,14.59,18.52ZM776,94.3c0,12.36-10.35,22.54-24.21,22.54-13,0-23.54-10.18-23.54-22.54V59.74a21.59,21.59,0,0,1-20.37-21.53,21.38,21.38,0,0,1,21.54-21.54h45.41A21.55,21.55,0,0,1,776,59.74V94.3ZM619.38,41.55c0-16.37,8.75-24.88,24.4-24.88h29.11c17.66,0,31.46,13.36,31.46,30.55,0,9.35-3.87,17-10.26,21.87L702.84,83a21.55,21.55,0,0,1,3.36,11.86,21.85,21.85,0,0,1-22,22A22.31,22.31,0,0,1,665,106l-2.36-4.17a21.44,21.44,0,0,1-20.86,15c-12.28,0-22.38-10.35-22.38-22.87V41.55ZM564.15,97.76c-5.69,11.78-13.73,17.41-23.45,17.41-17.59,0-30.32-16.08-22.45-34.16l20.61-47.77C544.05,21.47,551.59,15,564.32,15c12.9,0,20.44,6.47,25.46,18.24L610.39,81c7.71,18.08-4.86,34.16-22.62,34.16-9.88,0-17.92-5.63-23.62-17.41ZM505.48,94.3c0,12.36-10.54,22.54-24.09,22.54-13,0-23.58-10.18-23.58-22.54V59.74A21.55,21.55,0,0,1,459,16.67h45.33a21.55,21.55,0,0,1,1.17,43.07V94.3Zm-68.08-10c0,19.93-15.39,32.49-41.32,32.49-26.44,0-38.82-9-38.82-23.78,0-10.22,7.86-16.75,19.07-16.75h.17l-6-5.53C363,63.91,357.76,57,357.76,47c0-19.59,14.39-32,39-32,25.1,0,37,8.88,37,23.79,0,8.87-6,14.9-15.06,16.24l6.19,5.53c7.53,6.7,12.55,13.74,12.55,23.79Zm-85.15,8.4a22.94,22.94,0,0,1-41.62,12.79l-4.72-6.65c-2.19,9.64-10.62,16.28-21.4,16.28A22.28,22.28,0,0,1,262.1,92.91V37.26A22.17,22.17,0,0,1,284.51,15c10.95,0,19.55,7.14,21.57,16.94l5.22-7.3a23.24,23.24,0,0,1,18.54-9.47c12.13,0,22.41,9.47,22.41,21.76A21.82,21.82,0,0,1,348,50.05L337.25,64.84,348,79.62a22.19,22.19,0,0,1,4.21,13.13Zm-98.5-5.11c0,16.09-13.45,27.53-35,27.53-28.88,0-50.13-21.39-50.13-50.08S189.85,15,218.73,15c21.57,0,35,11.44,35,27.53,0,10.78-5.31,18.08-15.94,22.56,10.63,4.47,15.94,11.94,15.94,22.55ZM136.13,15c13.49,0,24.29,11,24.12,24V91.21a24.21,24.21,0,0,1-48.42,0V39a24.24,24.24,0,0,1,24.3-24Zm-31,77.75a23,23,0,0,1-41.72,12.79l-4.71-6.65c-2.18,9.64-10.59,16.28-21.36,16.28A22.26,22.26,0,0,1,15,92.91V37.26A22.16,22.16,0,0,1,37.37,15C48.3,15,56.88,22.14,58.9,31.94l5.38-7.3a23.2,23.2,0,0,1,18.51-9.47c12.11,0,22.37,9.47,22.37,21.76A21.82,21.82,0,0,1,101,50.05L90.19,64.84,101,79.62a22.19,22.19,0,0,1,4.21,13.13Z"/></clipPath></defs><title>Asset 1</title><g id="Layer_2" data-name="Layer 2"><g id="Layer_1-2" data-name="Layer 1"><g class="cls-2"><rect class="cls-3" width="990" height="131.84"/></g></g></g></svg>